<svg width="47" height="57" viewBox="0 0 47 57" fill="none" xmlns="http://www.w3.org/2000/svg">
<path d="M46.7209 28.4972C46.7209 44.1646 40.3128 56.8655 28.3029 56.8655C27.7375 56.8655 20.6863 56.9208 20.1318 56.8655C8.90712 55.7464 4.34961 43.4269 4.34961 28.4972C4.34961 14.5459 10.2902 2.50337 20.4612 0.129702C21.7124 -0.162288 26.1637 0.129976 27.4792 0.129976C39.4891 0.129976 46.7209 12.8298 46.7209 28.4972Z" fill="#E2A900"/>
<path d="M20.5596 4.80859C24.3738 4.80859 28.2406 6.93274 31.3291 11.1943C34.4137 15.4505 36.4648 21.5621 36.4648 28.5225C36.4648 35.4828 34.4137 41.5943 31.3291 45.8506C28.2406 50.1122 24.3738 52.2363 20.5596 52.2363C16.7454 52.2363 12.8786 50.1122 9.79004 45.8506C6.70551 41.5944 4.6543 35.4827 4.6543 28.5225C4.65433 21.5621 6.70543 15.4505 9.79004 11.1943C12.8786 6.93276 16.7454 4.80862 20.5596 4.80859Z" fill="#E2A900" stroke="#F9D401" stroke-width="9.30886"/>
<rect x="18" y="17" width="5" height="23" fill="#F9D401"/>
</svg>
