<svg width="35" height="35" viewBox="0 0 35 35" fill="none" xmlns="http://www.w3.org/2000/svg">
<g clip-path="url(#clip0_1672_15036)">
<path d="M24.0649 29.3628C24.341 29.3628 24.5686 29.5876 24.5385 29.8621C24.2217 32.7415 21.1915 34.9998 17.5002 34.9998C13.8089 34.9998 10.7787 32.7415 10.4619 29.8621C10.4317 29.5876 10.6611 29.3628 10.9372 29.3628C14.0183 29.3628 13.7888 29.3628 17.5002 29.3628C21.2853 29.3628 18.904 29.3628 24.0649 29.3628Z" fill="#DAB900"/>
<circle cx="17.5" cy="5" r="5" fill="#F3CE00"/>
<path d="M17.5 2.01172C23.8643 2.01198 29.0234 7.17174 29.0234 13.5361V20.5449H31.1533C33.2772 20.5449 34.9999 22.2667 35 24.3906C35 26.5146 33.2773 28.2363 31.1533 28.2363H3.84473C1.72082 28.2362 -0.000976562 26.5146 -0.000976562 24.3906C-0.000845919 22.2668 1.7209 20.545 3.84473 20.5449H5.97559V13.5361C5.97559 7.17158 11.1355 2.01172 17.5 2.01172Z" fill="#F9D401"/>
<rect opacity="0.25" width="12.1662" height="3" rx="1.5" transform="matrix(-4.37114e-08 -1 -1 4.37114e-08 27 27)" fill="white"/>
<rect opacity="0.25" width="4.08381" height="3" rx="1.5" transform="matrix(-4.37114e-08 -1 -1 4.37114e-08 27 14.084)" fill="white"/>
</g>
<defs>
<clipPath id="clip0_1672_15036">
<rect width="35" height="35" fill="white"/>
</clipPath>
</defs>
</svg>
