<svg width="66" height="66" viewBox="0 0 66 66" fill="none" xmlns="http://www.w3.org/2000/svg">
<rect width="66" height="66" rx="10" fill="white"/>
<path d="M49.451 9.58125C49.451 7.93031 48.1106 6.58984 46.4598 6.58984C29.9407 6.58984 16.5479 19.9836 16.5479 36.5039V54.6021C16.5479 57.2538 18.699 59.4015 21.3469 59.4015H43.0742C46.595 59.4015 49.451 56.5452 49.451 53.0242V9.58125Z" fill="#AEEAFF"/>
<path d="M53.0268 26.4961C56.5476 26.4961 59.4037 29.3524 59.4037 32.8734V42.9506C59.4037 52.0381 52.0371 59.4052 42.9503 59.4052H12.9725C9.45177 59.4016 6.5957 56.5489 6.5957 53.0243V32.8734C6.5957 29.3524 9.45177 26.4961 12.9725 26.4961H53.0268Z" fill="#AEEAFF"/>
<path d="M6.5957 9.58125C6.5957 7.93031 7.93608 6.58984 9.5869 6.58984C26.1061 6.58984 39.4989 19.9836 39.4989 36.5039V54.6021C39.4989 57.2538 37.3514 59.4015 34.6998 59.4015H12.9725C9.45177 59.4015 6.5957 56.5489 6.5957 53.0242V9.58125Z" fill="#AEEAFF"/>
<path d="M51.3941 30.1367H44.5863C43.0069 30.1367 41.7266 31.4171 41.7266 32.9966C41.7266 34.5761 43.0069 35.8565 44.5863 35.8565H51.3941C52.9735 35.8565 54.2538 34.5761 54.2538 32.9966C54.2538 31.4171 52.9735 30.1367 51.3941 30.1367Z" fill="#00BAFF"/>
<path d="M41.4346 17.6992C40.1928 17.6992 39.1885 18.7037 39.1885 19.9455V23.2145C39.1885 24.4564 40.1928 25.4608 41.4346 25.4608C42.6764 25.4608 43.6808 24.4564 43.6808 23.2145V19.9455C43.6808 18.7037 42.6764 17.6992 41.4346 17.6992Z" fill="#00BAFF"/>
<path d="M29.7002 17.6992C28.4585 17.6992 27.4541 18.7037 27.4541 19.9455V23.2145C27.4541 24.4564 28.4585 25.4608 29.7002 25.4608C30.942 25.4608 31.9464 24.4564 31.9464 23.2145V19.9455C31.9464 18.7037 30.942 17.6992 29.7002 17.6992Z" fill="#00BAFF"/>
</svg>
