<?xml version="1.0" encoding="UTF-8"?>
<svg id="Layer_2" data-name="Layer 2" xmlns="http://www.w3.org/2000/svg" viewBox="0 0 491.17 437.01">
  <defs>
    <style>
      .cls-1 {
        fill: #ffb2ce;
      }

      .cls-2 {
        fill: #f7b553;
      }

      .cls-3 {
        fill-rule: evenodd;
      }

      .cls-3, .cls-4 {
        fill: #b1d5ff;
      }

      .cls-5 {
        fill: #fff;
      }

      .cls-6 {
        fill: #dc962f;
      }

      .cls-7 {
        fill: #cde4ff;
      }

      .cls-8 {
        fill: #fe9fb3;
      }

      .cls-9 {
        fill: #ffa1c6;
      }

      .cls-10 {
        fill: #f2f2f2;
      }

      .cls-11 {
        fill: #ff5f66;
      }
    </style>
  </defs>
  <path class="cls-6" d="M215.19,321.66c41.97-22.74,65.88-55.32,73.99-99.03,1.37-7.39-4.48-13.95-11.99-14.07-6.03-.09-11.27,4.06-12.83,9.88-11.15,41.64-26.89,57.99-69.55,85.17l20.38,18.05Z"/>
  <rect class="cls-6" x="0" y="406.57" width="56" height="29.4" rx="14.7" ry="14.7"/>
  <rect class="cls-6" x="158.19" y="406.57" width="56" height="29.4" rx="14.7" ry="14.7"/>
  <path class="cls-6" d="M87.9,336.98l-25.2,83.65c-3.22,10.68-14.48,16.73-25.16,13.51h0c-10.68-3.22-16.73-14.48-13.51-25.16l25.2-83.65c3.22-10.68,14.48-16.73,25.16-13.51h0c10.68,3.22,16.73,14.48,13.51,25.16Z"/>
  <path class="cls-6" d="M246.09,336.98l-25.2,83.65c-3.22,10.68-14.48,16.73-25.16,13.51h0c-10.68-3.22-16.73-14.48-13.51-25.16l25.2-83.65c3.22-10.68,14.48-16.73,25.16-13.51h0c10.68,3.22,16.73,14.48,13.51,25.16Z"/>
  <rect class="cls-2" x="46.2" y="252.58" width="230.98" height="120.39" rx="60.19" ry="60.19"/>
  <path class="cls-2" d="M157.49,141.33c0-23.81-9.85-46.57-27.2-62.87-8.26-7.76-21.79-1.9-21.79,9.43v112.9h48.99v-59.46Z"/>
  <path class="cls-2" d="M27.63,141.53c-.21-23.91,9.59-46.83,27.02-63.2,8.2-7.7,21.65-1.89,21.65,9.37v113.1l-48.3-17.5-.37-41.76Z"/>
  <path class="cls-6" d="M27.63,141.53c-.21-23.91,9.59-46.83,27.02-63.2,8.2-7.7,21.65-1.89,21.65,9.37v113.1l-48.3-17.5-.37-41.76Z"/>
  <path class="cls-2" d="M157.58,183.25c-3.64-33.04-31.56-58.06-64.8-58.06-38.98,0-69.25,33.98-64.76,72.7l13.63,117.68c3.79,32.72,31.5,57.4,64.43,57.4,38.64,0,68.71-33.56,64.47-71.97l-12.97-117.76Z"/>
  <path class="cls-5" d="M43.78,321.88h52.59c7.13,0,14.23.76,21.2,2.27l55.34,12c17.33,3.76,29.69,19.09,29.69,36.82l-98.64-.45c-29.65-.14-54.98-21.45-60.17-50.64Z"/>
  <rect class="cls-2" x="100.89" y="406.57" width="58.79" height="29.4" rx="14.7" ry="14.7"/>
  <path class="cls-2" d="M98.09,322.09l29.63,98.33c3.22,10.68,14.48,16.73,25.16,13.51h0c10.68-3.22,16.73-14.48,13.51-25.16l-29.63-98.33c-3.22-10.68-14.48-16.73-25.16-13.51h0c-10.68,3.22-16.73,14.48-13.51,25.16Z"/>
  <path class="cls-8" d="M51.72,242.71h0c3.83-3.83,10.03-3.83,13.86,0l11.88,11.88c3.83,3.83,3.83,10.03,0,13.86h0c-3.83,3.83-10.03,3.83-13.86,0l-11.88-11.88c-3.83-3.83-3.83-10.03,0-13.86Z"/>
  <path class="cls-5" d="M2.8,223.19c0-17.01,13.79-30.8,30.8-30.8h40.22v26.09c0,19.61-15.9,35.51-35.51,35.51h-4.71c-17.01,0-30.8-13.79-30.8-30.8Z"/>
  <path class="cls-5" d="M117.35,223.19c0-17.01-13.79-30.8-30.8-30.8h-40.22v26.09c0,19.61,15.9,35.51,35.51,35.51h4.71c17.01,0,30.8-13.79,30.8-30.8Z"/>
  <rect x="37.8" y="196.59" width="42.92" height="19.59" rx="9.8" ry="9.8"/>
  <rect x="46.2" y="161.59" width="15.4" height="26.6" rx="7.7" ry="7.7"/>
  <rect x="78.39" y="161.59" width="15.4" height="26.6" rx="7.7" ry="7.7"/>
  <rect class="cls-4" x="423.98" y="402.79" width="67.19" height="33.6" rx="16.8" ry="16.8"/>
  <path class="cls-4" d="M258.38,327.18h0c-15.92,4.27-25.37,20.63-21.11,36.56l13.7,51.14c4.27,15.92,20.63,25.37,36.56,21.11h0c15.92-4.27,25.37-20.63,21.11-36.56l-13.7-51.14c-4.27-15.92-20.63-25.37-36.56-21.11Z"/>
  <path class="cls-4" d="M456.78,328.04h0c15.67,5.12,24.22,21.97,19.1,37.64l-16.44,50.33c-5.12,15.67-21.97,24.22-37.64,19.1h0c-15.67-5.12-24.22-21.97-19.1-37.64l16.44-50.33c5.12-15.67,21.97-24.22,37.64-19.1Z"/>
  <rect class="cls-4" x="218.2" y="402.79" width="82.59" height="33.6" rx="16.8" ry="16.8"/>
  <path class="cls-3" d="M266.64,148.15c-3.07-3.38-8.07-4.05-12.12-1.94-6.08,3.15-7.59,11.09-3.69,16.72,14.78,21.32,12.72,35.46-.89,63.47h0c-17.27,28.38-13.5,53.96,10.37,78.4,3.22,3.29,8.24,3.9,12.32,1.78,6.14-3.18,7.8-11.15,3.85-16.83-18.14-26.06-14.14-36.97.72-63.35h-.04c13.65-30.21,10.04-55.63-10.51-78.25Z"/>
  <ellipse class="cls-7" cx="352.59" cy="341.89" rx="85.39" ry="94.49"/>
  <path class="cls-7" d="M377.82,383.9c0-31.22,23.78-57.31,54.87-60.2l32.64-3.03-37.89,99.44c-4.64,12.17-17.65,18.93-30.27,15.73-11.38-2.88-19.35-13.12-19.35-24.86v-27.08Z"/>
  <path class="cls-4" d="M357.13,246.89c0-27.47-11.36-53.72-31.39-72.53-9.53-8.95-25.14-2.19-25.14,10.88v130.24h56.52v-68.6Z"/>
  <path class="cls-4" d="M394.27,246.89c0-27.47,11.36-53.72,31.39-72.53,9.53-8.95,25.14-2.19,25.14,10.88v130.24h-56.53v-68.6Z"/>
  <circle class="cls-7" cx="382.97" cy="283.19" r="90.44"/>
  <path class="cls-5" d="M311.91,292.07c0-12.93,10.48-23.42,23.42-23.42h31.49v19.38c0,15.16-12.29,27.46-27.46,27.46h-4.04c-12.93,0-23.42-10.48-23.42-23.42Z"/>
  <path class="cls-5" d="M400.73,292.07c0-12.93-10.48-23.42-23.42-23.42h-31.49v19.38c0,15.16,12.29,27.46,27.45,27.46h4.04c12.93,0,23.42-10.48,23.42-23.42Z"/>
  <rect class="cls-11" x="341.12" y="262.19" width="30.99" height="14.15" rx="7.07" ry="7.07"/>
  <rect x="329.82" y="231.51" width="17.76" height="30.68" rx="8.88" ry="8.88"/>
  <rect x="366.96" y="231.51" width="17.76" height="30.68" rx="8.88" ry="8.88"/>
  <path class="cls-7" d="M321.79,356.59l-6-17.8c-7.82-23.21-27.73-40.25-51.86-44.4l-52.58-9.04c-13.25-2.28-25.35,7.92-25.35,21.36,0,10.01,6.85,18.72,16.59,21.07l119.2,28.8Z"/>
  <rect class="cls-7" x="388.98" y="402.79" width="76.99" height="33.6" rx="16.8" ry="16.8"/>
  <path class="cls-7" d="M232.29,299.25l-5.91-22.06c-1.26-4.72-6.11-7.51-10.83-6.25h0c-4.72,1.26-7.51,6.11-6.25,10.83l5.91,22.06c1.26,4.72,6.11,7.51,10.83,6.25h0c4.72-1.26,7.51-6.11,6.25-10.83Z"/>
  <path class="cls-9" d="M239.76,40.45c4.16-5.71,3.88-13.52-.67-18.92-6.41-7.61-18.26-7.19-24.12.85l-42.86,58.79c-4.16,5.71-3.89,13.52.67,18.92,6.41,7.61,18.26,7.19,24.12-.85l42.86-58.79Z"/>
  <path class="cls-9" d="M278.71,40.45c-4.16-5.71-3.88-13.52.67-18.92,6.41-7.61,18.26-7.19,24.12.85l42.86,58.79c4.16,5.71,3.89,13.52-.67,18.92-6.41,7.61-18.26,7.19-24.12-.85l-42.86-58.79Z"/>
  <path class="cls-9" d="M259.54,98.7h0c18.17,0,32.9,14.73,32.9,32.9v10.53c0,18.17-14.73,32.9-32.9,32.9h0c-18.17,0-32.9-14.73-32.9-32.9v-10.53c0-18.17,14.73-32.9,32.9-32.9Z"/>
  <path class="cls-9" d="M222.7,141.47h0c0-7.63-6.19-13.82-13.82-13.82h0c-7.63,0-13.82,6.19-13.82,13.82h0c0,7.63,6.19,13.82,13.82,13.82h0c7.63,0,13.82-6.19,13.82-13.82Z"/>
  <path class="cls-1" d="M305.6,191.48v-27.64c0-7.63-6.19-13.82-13.82-13.82h0c-7.63,0-13.82,6.19-13.82,13.82v27.64c0,7.63,6.19,13.82,13.82,13.82h0c7.63,0,13.82-6.19,13.82-13.82Z"/>
  <path class="cls-9" d="M242.44,221.74v-42.11c0-7.63-6.19-13.82-13.82-13.82h0c-7.63,0-13.82,6.19-13.82,13.82v42.11c0,7.63,6.19,13.82,13.82,13.82h0c7.63,0,13.82-6.19,13.82-13.82Z"/>
  <rect class="cls-9" x="204.27" y="98.7" width="51.32" height="84.22" rx="25.66" ry="25.66"/>
  <rect class="cls-1" x="267.44" y="98.7" width="48.69" height="84.22" rx="24.35" ry="24.35"/>
  <path class="cls-1" d="M306.99,177.46l14.47-8.36c10.18-5.88,13.66-18.89,7.79-29.06h0c-5.88-10.18-18.89-13.66-29.06-7.79l-14.47,8.36c-10.18,5.88-13.66,18.89-7.79,29.06h0c5.88,10.18,18.89,13.66,29.06,7.79Z"/>
  <path class="cls-1" d="M260.2,0c30.89,0,55.93,25.04,55.93,55.93v65.14h-111.86V55.93C204.27,25.04,229.31,0,260.2,0Z"/>
  <rect class="cls-5" x="233.22" y="92.12" width="53.96" height="82.91" rx="26.98" ry="26.98"/>
  <path class="cls-1" d="M230.63,110.34l7.9,13.68c4.54,7.87,1.85,17.93-6.02,22.47h0c-7.87,4.54-17.93,1.85-22.47-6.02l-7.9-13.68c-4.54-7.87-1.85-17.93,6.02-22.47h0c7.87-4.54,17.93-1.85,22.47,6.02Z"/>
  <path class="cls-1" d="M289.19,110.31l-7.9,13.68c-4.54,7.87-1.85,17.93,6.02,22.47h0c7.87,4.54,17.93,1.85,22.47-6.02l7.9-13.68c4.54-7.87,1.85-17.93-6.02-22.47h0c-7.87-4.54-17.93-1.85-22.47,6.02Z"/>
  <rect class="cls-10" x="250.33" y="52.83" width="19.74" height="25" rx="3" ry="3"/>
  <path class="cls-5" d="M230.56,35.18l38.19,13.07c0,12.79-10.15,23.42-22.82,21.64-11.58-1.63-24.28-5.23-29.54-13.14-7.39-11.11,0-26.15,14.17-21.57Z"/>
  <path class="cls-5" d="M288.52,35.18l-38.19,13.07c0,12.79,10.15,23.42,22.82,21.64,11.58-1.63,24.28-5.23,29.54-13.14,7.39-11.11,0-26.15-14.17-21.57Z"/>
  <rect class="cls-11" x="246.38" y="38.35" width="25.26" height="11.53" rx="5.76" ry="5.76"/>
  <rect x="267.44" y="10.53" width="14.48" height="25" rx="7.24" ry="7.24"/>
  <rect x="239.8" y="10.53" width="14.48" height="25" rx="7.24" ry="7.24"/>
</svg>