<svg width="25" height="25" viewBox="0 0 25 25" fill="none" xmlns="http://www.w3.org/2000/svg">
<g clip-path="url(#clip0_1672_14997)">
<rect x="1.68945" y="9.08398" width="21.6209" height="15.9161" rx="1.98735" fill="#81F42D"/>
<path d="M13.5488 19.829C13.5488 17.957 15.0664 16.4395 16.9384 16.4395V16.4395C18.8104 16.4395 20.328 17.957 20.328 19.829V24.9999H13.5488V19.829Z" fill="#5ACD05"/>
<path d="M1.67336 1.55611C1.87547 0.646881 2.68193 0 3.61335 0H7.13787L6.24564 9.08392H0L1.67336 1.55611Z" fill="#B7FF82"/>
<path d="M23.3179 1.55611C23.1157 0.646881 22.3093 0 21.3779 0H17.8533L18.7456 9.08392H24.9912L23.3179 1.55611Z" fill="#81F42D"/>
<path d="M7.14403 0H12.4956V9.08392H6.25L7.14403 0Z" fill="#81F42D"/>
<path d="M17.8472 0H12.4956V9.08392H18.7412L17.8472 0Z" fill="#B7FF82"/>
<path d="M6.25 9.08398C6.25 11.0906 4.85089 12.7173 3.125 12.7173C1.39911 12.7173 0 11.0906 0 9.08398C1.2507 9.08398 1.39911 9.08401 3.125 9.08401C4.85089 9.08401 4.02788 9.08399 6.25 9.08398Z" fill="#B7FF82"/>
<path d="M6.25 9.08398C6.25 11.0906 4.85089 12.7173 3.125 12.7173C1.39911 12.7173 0 11.0906 0 9.08398C1.2507 9.08398 1.39911 9.08401 3.125 9.08401C4.85089 9.08401 4.02788 9.08399 6.25 9.08398Z" fill="black" fill-opacity="0.1"/>
<path d="M12.5 9.08398C12.5 11.0906 11.1009 12.7173 9.375 12.7173C7.64911 12.7173 6.25 11.0906 6.25 9.08398C7.5007 9.08398 7.64911 9.08401 9.375 9.08401C11.1009 9.08401 10.2779 9.08399 12.5 9.08398Z" fill="#81F42D"/>
<path d="M12.5 9.08398C12.5 11.0906 11.1009 12.7173 9.375 12.7173C7.64911 12.7173 6.25 11.0906 6.25 9.08398C7.5007 9.08398 7.64911 9.08401 9.375 9.08401C11.1009 9.08401 10.2779 9.08399 12.5 9.08398Z" fill="black" fill-opacity="0.1"/>
<path d="M18.75 9.08398C18.75 11.0906 17.3509 12.7173 15.625 12.7173C13.8991 12.7173 12.5 11.0906 12.5 9.08398C13.7507 9.08398 13.8991 9.08401 15.625 9.08401C17.3509 9.08401 16.5279 9.08399 18.75 9.08398Z" fill="#B7FF82"/>
<path d="M18.75 9.08398C18.75 11.0906 17.3509 12.7173 15.625 12.7173C13.8991 12.7173 12.5 11.0906 12.5 9.08398C13.7507 9.08398 13.8991 9.08401 15.625 9.08401C17.3509 9.08401 16.5279 9.08399 18.75 9.08398Z" fill="black" fill-opacity="0.1"/>
<path d="M25 9.08398C25 11.0906 23.6009 12.7173 21.875 12.7173C20.1491 12.7173 18.75 11.0906 18.75 9.08398C20.0007 9.08398 20.1491 9.08401 21.875 9.08401C23.6009 9.08401 22.7779 9.08399 25 9.08398Z" fill="#81F42D"/>
<path d="M25 9.08398C25 11.0906 23.6009 12.7173 21.875 12.7173C20.1491 12.7173 18.75 11.0906 18.75 9.08398C20.0007 9.08398 20.1491 9.08401 21.875 9.08401C23.6009 9.08401 22.7779 9.08399 25 9.08398Z" fill="black" fill-opacity="0.1"/>
</g>
<defs>
<clipPath id="clip0_1672_14997">
<rect width="25" height="25" fill="white"/>
</clipPath>
</defs>
</svg>
