<svg width="118" height="116" viewBox="0 0 118 116" fill="none" xmlns="http://www.w3.org/2000/svg">
<path d="M110.97 99.1992H98.0416C94.4715 99.1992 91.5773 102.093 91.5773 105.664V105.664C91.5773 109.234 94.4715 112.128 98.0416 112.128H110.97C114.54 112.128 117.434 109.234 117.434 105.664V105.664C117.434 102.093 114.54 99.1992 110.97 99.1992Z" fill="#B1D5FF"/>
<path d="M19.7301 84.1706C18.0884 78.0434 21.7245 71.7454 27.8517 70.1036C33.9789 68.4618 40.2768 72.0979 41.9186 78.2251L47.1918 97.9052C48.8335 104.032 45.1974 110.33 39.0702 111.972C32.943 113.614 26.6451 109.978 25.0033 103.851L19.7301 84.1706Z" fill="#B1D5FF"/>
<path d="M111.552 84.9195C113.522 78.8897 110.23 72.4049 104.201 70.4354C98.1708 68.4658 91.6861 71.7573 89.7166 77.7871L83.3906 97.1544C81.4211 103.184 84.7126 109.669 90.7424 111.639C96.7722 113.608 103.257 110.317 105.226 104.287L111.552 84.9195Z" fill="#B1D5FF"/>
<path d="M18.8543 99.1992H37.7083C41.2784 99.1992 44.1726 102.093 44.1726 105.664V105.664C44.1726 109.234 41.2784 112.128 37.7083 112.128H18.8543C15.2842 112.128 12.39 109.234 12.39 105.664V105.664C12.39 102.093 15.2842 99.1992 18.8543 99.1992Z" fill="#B1D5FF"/>
<path d="M31.0306 1.21045C29.8482 -0.0909293 27.9254 -0.34731 26.3646 0.462403C24.0253 1.67608 23.4443 4.72906 24.9457 6.89502C30.6335 15.1003 29.8419 20.5416 24.6019 31.3208C17.957 42.2426 19.4076 52.0865 28.5941 61.4888C29.8326 62.7561 31.7643 62.9914 33.3373 62.1753C35.6988 60.9498 36.3367 57.8835 34.8168 55.6997C27.836 45.67 29.3752 41.4744 35.0922 31.3208L35.0746 31.3198C40.3279 19.6957 38.9366 9.91156 31.0306 1.21045Z" fill="#B1D5FF"/>
<path d="M64.1041 112.13C82.2522 112.13 96.9641 95.8503 96.9641 75.7681C96.9641 55.686 82.2522 39.4062 64.1041 39.4062C45.9561 39.4062 31.2441 55.686 31.2441 75.7681C31.2441 95.8503 45.9561 112.13 64.1041 112.13Z" fill="#CDE4FF"/>
<path d="M73.8152 91.9318C73.8152 79.9161 82.9656 69.8773 94.9298 68.7671L107.491 67.6016L92.909 105.868C91.1249 110.55 86.1161 113.152 81.2596 111.921C76.8812 110.81 73.8152 106.87 73.8152 102.353V91.9318Z" fill="#CDE4FF"/>
<path d="M65.8528 39.2091C65.8528 28.6377 61.4817 18.5369 53.7755 11.3003C50.109 7.85721 44.1016 10.4569 44.1016 15.4866V65.6058H65.8528V39.2091Z" fill="#B1D5FF"/>
<path d="M80.1464 39.2091C80.1464 28.6377 84.5174 18.5369 92.2236 11.3003C95.8901 7.85721 101.898 10.4569 101.898 15.4866V65.6058H80.1464V39.2091Z" fill="#B1D5FF"/>
<path d="M75.796 87.9776C95.0166 87.9776 110.598 72.3961 110.598 53.1753C110.598 33.9546 95.0166 18.373 75.796 18.373C56.5755 18.373 40.9941 33.9546 40.9941 53.1753C40.9941 72.3961 56.5755 87.9776 75.796 87.9776Z" fill="#CDE4FF"/>
<path d="M48.4519 56.5914C48.4519 51.6146 52.4864 47.5801 57.4632 47.5801H69.5817V55.0378C69.5817 60.8726 64.8516 65.6027 59.0168 65.6027H57.4632C52.4864 65.6027 48.4519 61.5682 48.4519 56.5914Z" fill="white"/>
<path d="M82.6323 56.5914C82.6323 51.6146 78.5978 47.5801 73.621 47.5801H61.5026V55.0378C61.5026 60.8726 66.2326 65.6027 72.0675 65.6027H73.621C78.5978 65.6027 82.6323 61.5682 82.6323 56.5914Z" fill="white"/>
<path d="M68.8966 45.0977H62.4146C60.911 45.0977 59.6921 46.3166 59.6921 47.8201C59.6921 49.3237 60.911 50.5426 62.4146 50.5426H68.8966C70.4001 50.5426 71.619 49.3237 71.619 47.8201C71.619 46.3166 70.4001 45.0977 68.8966 45.0977Z" fill="#FF5F66"/>
<path d="M62.178 36.7091C62.178 34.8213 60.6477 33.291 58.76 33.291C56.8722 33.291 55.3419 34.8213 55.3419 36.7091V41.6809C55.3419 43.5686 56.8722 45.0989 58.76 45.0989C60.6477 45.0989 62.178 43.5686 62.178 41.6809V36.7091Z" fill="black"/>
<path d="M76.4717 36.7091C76.4717 34.8213 74.9414 33.291 73.0537 33.291C71.1659 33.291 69.6356 34.8213 69.6356 36.7091V41.6809C69.6356 43.5686 71.1659 45.0989 73.0537 45.0989C74.9414 45.0989 76.4717 43.5686 76.4717 41.6809V36.7091Z" fill="black"/>
<path d="M52.2529 81.4244L49.9456 74.5753C46.9374 65.6456 39.2742 59.0851 29.9876 57.4889L9.75448 54.0114C4.65763 53.1353 0.000122097 57.0606 0.00012207 62.2322C0.00012205 66.0843 2.63792 69.4354 6.38228 70.3402L52.2529 81.4244Z" fill="#CDE4FF"/>
<path d="M101.274 99.1992H84.5743C81.0042 99.1992 78.11 102.093 78.11 105.664V105.664C78.11 109.234 81.0042 112.128 84.5743 112.128H101.274C104.844 112.128 107.738 109.234 107.738 105.664V105.664C107.738 102.093 104.844 99.1992 101.274 99.1992Z" fill="#CDE4FF"/>
<path d="M15.5384 50.867L17.8132 59.3567C18.2994 61.1714 17.2225 63.0368 15.4077 63.523C13.593 64.0093 11.7277 62.9324 11.2414 61.1176L8.96661 52.6279C8.48035 50.8131 9.5573 48.9478 11.372 48.4615C13.1868 47.9753 15.0521 49.0522 15.5384 50.867Z" fill="#CDE4FF"/>
</svg>
