<svg xmlns="http://www.w3.org/2000/svg" viewBox="0 0 41 41" shape-rendering="crispEdges"><path fill="#D1FAE5" d="M0 0h41v41H0z"/><path stroke="#064E3B" d="M2 2.5h7m1 0h2m2 0h1m2 0h3m2 0h1m1 0h2m3 0h1m2 0h7M2 3.5h1m5 0h1m3 0h2m2 0h1m1 0h1m7 0h1m2 0h1m2 0h1m5 0h1M2 4.5h1m1 0h3m1 0h1m2 0h1m1 0h1m1 0h1m9 0h1m6 0h1m1 0h3m1 0h1M2 5.5h1m1 0h3m1 0h1m1 0h3m2 0h1m3 0h7m2 0h1m3 0h1m1 0h3m1 0h1M2 6.5h1m1 0h3m1 0h1m3 0h2m3 0h1m1 0h1m1 0h1m2 0h1m1 0h5m1 0h1m1 0h3m1 0h1M2 7.5h1m5 0h1m2 0h2m2 0h2m4 0h1m1 0h1m4 0h3m1 0h1m5 0h1M2 8.5h7m1 0h1m1 0h1m1 0h1m1 0h1m1 0h1m1 0h1m1 0h1m1 0h1m1 0h1m1 0h1m1 0h1m1 0h7M11 9.5h1m1 0h5m2 0h1m1 0h1m1 0h2m4 0h1M4 10.5h1m1 0h3m1 0h1m1 0h1m1 0h3m3 0h1m1 0h1m3 0h1m2 0h1m1 0h1m3 0h1m2 0h1M4 11.5h1m2 0h1m3 0h3m1 0h1m1 0h3m2 0h1m1 0h1m1 0h1m2 0h1m1 0h1m2 0h2m2 0h1M2 12.5h1m2 0h2m1 0h4m1 0h1m2 0h1m2 0h1m3 0h2m2 0h1m4 0h1m3 0h3M2 13.5h3m1 0h1m3 0h2m3 0h2m1 0h1m2 0h2m2 0h5m1 0h1m2 0h1M4 14.5h1m1 0h1m1 0h1m1 0h1m1 0h5m1 0h1m1 0h5m1 0h2m2 0h4m1 0h1m2 0h1M2 15.5h3m1 0h1m3 0h1m1 0h1m2 0h2m1 0h1m1 0h1m5 0h3m1 0h1m1 0h1m2 0h4M2 16.5h2m1 0h1m2 0h1m3 0h7m1 0h2m1 0h3m4 0h1m5 0h3M2 17.5h1m6 0h1m5 0h2m4 0h1m1 0h1m2 0h2m3 0h1m2 0h1m2 0h1M6 18.5h1m1 0h1m5 0h2m1 0h1m2 0h2m2 0h1m1 0h2m2 0h3m2 0h1m1 0h2M2 19.5h5m4 0h1m2 0h1m1 0h2m2 0h3m3 0h2m2 0h3m2 0h1m1 0h2M3 20.5h2m3 0h1m1 0h2m2 0h1m3 0h1m1 0h2m1 0h2m6 0h5m1 0h2M2 21.5h1m1 0h3m2 0h6m1 0h2m1 0h3m5 0h3m1 0h2m1 0h1m2 0h1M3 22.5h3m2 0h1m2 0h1m2 0h2m2 0h1m3 0h6m2 0h4m3 0h2M2 23.5h1m1 0h4m4 0h3m4 0h1m3 0h2m2 0h1m3 0h2m2 0h1m2 0h1M2 24.5h2m1 0h1m2 0h1m2 0h2m6 0h1m1 0h1m3 0h2m1 0h1m1 0h1m1 0h1m1 0h1m1 0h3M4 25.5h4m2 0h2m6 0h6m3 0h2M3 26.5h4m1 0h6m3 0h3m2 0h2m1 0h1m2 0h3m1 0h1m1 0h2m2 0h1M5 27.5h1m1 0h1m3 0h1m1 0h2m1 0h1m1 0h1m2 0h1m3 0h1m1 0h4m2 0h1m1 0h1m1 0h2M2 28.5h1m2 0h1m1 0h3m1 0h1m2 0h1m3 0h3m3 0h1m3 0h3m1 0h2m2 0h3M3 29.5h2m4 0h2m1 0h3m3 0h1m1 0h3m1 0h2m1 0h1m2 0h1m1 0h1m1 0h2M2 30.5h1m2 0h2m1 0h2m2 0h1m1 0h1m4 0h3m1 0h1m2 0h2m1 0h6m2 0h1M10 31.5h3m1 0h1m2 0h3m4 0h1m1 0h1m3 0h1m3 0h1m3 0h1M2 32.5h7m2 0h1m1 0h1m2 0h1m1 0h1m4 0h1m2 0h1m1 0h3m1 0h1m1 0h1m1 0h3M2 33.5h1m5 0h1m1 0h1m1 0h1m2 0h7m4 0h2m2 0h1m3 0h1M2 34.5h1m1 0h3m1 0h1m1 0h1m2 0h1m1 0h3m1 0h1m1 0h1m1 0h1m1 0h4m1 0h6m1 0h2M2 35.5h1m1 0h3m1 0h1m2 0h1m4 0h2m1 0h1m2 0h5m4 0h1m1 0h6M2 36.5h1m1 0h3m1 0h1m1 0h3m1 0h1m2 0h1m1 0h3m1 0h4m2 0h3m2 0h1m1 0h1m1 0h1M2 37.5h1m5 0h1m2 0h1m2 0h2m2 0h1m3 0h1m3 0h2m1 0h2m2 0h1m1 0h1m1 0h1M2 38.5h7m2 0h1m1 0h2m1 0h1m2 0h1m1 0h1m1 0h10m1 0h1m2 0h2"/>
  <defs>
    <clipPath id="dogClip">
      <circle cx="16.5" cy="16.5" r="4.8" />
    </clipPath>
  </defs>
  <!-- white backing circle -->
  <circle cx="16.5" cy="16.5" r="4.8" fill="#ffffff" />
  <!-- dog logo clipped to circle -->
  <g clip-path="url(#dogClip)" transform="translate(13, 10.327956989247312) scale(0.07526881720430108, 0.07526881720430108)">
    <path d="M0 47.5247C0 30.5143 7.03353 14.2609 19.4337 2.61655C25.3335 -2.92365 35 1.25948 35 9.35277V89.999H0V47.5247Z" fill="#DC962F"/>
<path d="M93 47.5247C93 30.5143 85.9665 14.2609 73.5663 2.61655C67.6665 -2.92365 58 1.25948 58 9.35277V89.999H93V47.5247Z" fill="#DC962F"/>
<rect y="36" width="93" height="127.578" rx="46.5" fill="#F7B553"/>
<rect x="35" y="112" width="18" height="26" rx="9" fill="#FE9FB3"/>
<path d="M4 106C4 93.8497 13.8497 84 26 84H54.7322V102.634C54.7322 116.643 43.3754 128 29.3661 128H26C13.8497 128 4 118.15 4 106V106Z" fill="white"/>
<path d="M85.8262 106C85.8262 93.8497 75.9764 84 63.8262 84H35.094V102.634C35.094 116.643 46.4508 128 60.4601 128H63.8262C75.9764 128 85.8262 118.15 85.8262 106V106Z" fill="white"/>
<rect x="29" y="87" width="30.6595" height="13.9967" rx="6.99837" fill="black"/>
<rect x="28" y="62" width="11" height="19" rx="5.5" fill="black"/>
<rect x="51" y="62" width="11" height="19" rx="5.5" fill="black"/>
  </g></svg>
